<mxfile host="app.diagrams.net" agent="Mozilla/5.0 (Windows NT 10.0; Win64; x64) AppleWebKit/537.36 (KHTML, like Gecko) Chrome/131.0.0.0 Safari/537.36" version="24.8.4">
  <diagram name="Page-1" id="kMCLJ4YlM0XCs6ahDj28">
    <mxGraphModel dx="1752" dy="362" grid="1" gridSize="10" guides="1" tooltips="1" connect="1" arrows="1" fold="1" page="1" pageScale="1" pageWidth="850" pageHeight="1100" math="0" shadow="0">
      <root>
        <mxCell id="0" />
        <mxCell id="1" parent="0" />
        <mxCell id="MBWIw181q72L8Iw8k_BT-1" value="" style="rounded=1;whiteSpace=wrap;html=1;dashed=1;strokeWidth=1;fillColor=#f5f5f5;fontColor=#333333;strokeColor=#666666;" vertex="1" parent="1">
          <mxGeometry x="150" y="370" width="840" height="300" as="geometry" />
        </mxCell>
        <mxCell id="MBWIw181q72L8Iw8k_BT-15" style="edgeStyle=orthogonalEdgeStyle;rounded=0;orthogonalLoop=1;jettySize=auto;html=1;entryX=0;entryY=0.5;entryDx=0;entryDy=0;" edge="1" parent="1" source="MBWIw181q72L8Iw8k_BT-2" target="MBWIw181q72L8Iw8k_BT-12">
          <mxGeometry relative="1" as="geometry" />
        </mxCell>
        <mxCell id="MBWIw181q72L8Iw8k_BT-2" value="" style="rounded=1;whiteSpace=wrap;html=1;dashed=1;" vertex="1" parent="1">
          <mxGeometry x="170" y="80" width="340" height="250" as="geometry" />
        </mxCell>
        <mxCell id="MBWIw181q72L8Iw8k_BT-3" value="Reconciliation Platform" style="text;html=1;align=center;verticalAlign=middle;whiteSpace=wrap;rounded=0;" vertex="1" parent="1">
          <mxGeometry x="465" y="20" width="170" height="30" as="geometry" />
        </mxCell>
        <mxCell id="MBWIw181q72L8Iw8k_BT-16" style="edgeStyle=orthogonalEdgeStyle;rounded=0;orthogonalLoop=1;jettySize=auto;html=1;" edge="1" parent="1" source="MBWIw181q72L8Iw8k_BT-4">
          <mxGeometry relative="1" as="geometry">
            <mxPoint x="169" y="200" as="targetPoint" />
          </mxGeometry>
        </mxCell>
        <mxCell id="MBWIw181q72L8Iw8k_BT-4" value="Foreseer" style="rounded=1;whiteSpace=wrap;html=1;" vertex="1" parent="1">
          <mxGeometry x="-120" y="170" width="120" height="60" as="geometry" />
        </mxCell>
        <mxCell id="MBWIw181q72L8Iw8k_BT-7" value="XML Mapping" style="text;html=1;align=center;verticalAlign=middle;whiteSpace=wrap;rounded=0;" vertex="1" parent="1">
          <mxGeometry x="30" y="170" width="80" height="30" as="geometry" />
        </mxCell>
        <mxCell id="MBWIw181q72L8Iw8k_BT-9" style="edgeStyle=orthogonalEdgeStyle;rounded=0;orthogonalLoop=1;jettySize=auto;html=1;entryX=0.5;entryY=0;entryDx=0;entryDy=0;" edge="1" parent="1" source="MBWIw181q72L8Iw8k_BT-8" target="MBWIw181q72L8Iw8k_BT-4">
          <mxGeometry relative="1" as="geometry">
            <Array as="points">
              <mxPoint x="-130" y="130" />
              <mxPoint x="-60" y="130" />
            </Array>
          </mxGeometry>
        </mxCell>
        <mxCell id="MBWIw181q72L8Iw8k_BT-8" value="Cappitech Saas&lt;div&gt;&amp;amp; Cappitech Enterprise&lt;/div&gt;" style="rounded=1;whiteSpace=wrap;html=1;" vertex="1" parent="1">
          <mxGeometry x="-190" y="40" width="120" height="60" as="geometry" />
        </mxCell>
        <mxCell id="MBWIw181q72L8Iw8k_BT-11" style="edgeStyle=orthogonalEdgeStyle;rounded=0;orthogonalLoop=1;jettySize=auto;html=1;" edge="1" parent="1" source="MBWIw181q72L8Iw8k_BT-10">
          <mxGeometry relative="1" as="geometry">
            <mxPoint x="-60" y="170" as="targetPoint" />
            <Array as="points">
              <mxPoint x="40" y="130" />
              <mxPoint x="-59" y="130" />
            </Array>
          </mxGeometry>
        </mxCell>
        <mxCell id="MBWIw181q72L8Iw8k_BT-10" value="Other Sources" style="rounded=1;whiteSpace=wrap;html=1;" vertex="1" parent="1">
          <mxGeometry x="-20" y="40" width="120" height="60" as="geometry" />
        </mxCell>
        <mxCell id="MBWIw181q72L8Iw8k_BT-12" value="" style="rounded=1;whiteSpace=wrap;html=1;dashed=1;" vertex="1" parent="1">
          <mxGeometry x="600" y="80" width="340" height="250" as="geometry" />
        </mxCell>
        <mxCell id="MBWIw181q72L8Iw8k_BT-13" value="Reconciliation Workspace" style="text;html=1;align=center;verticalAlign=middle;whiteSpace=wrap;rounded=0;" vertex="1" parent="1">
          <mxGeometry x="250" y="55" width="170" height="30" as="geometry" />
        </mxCell>
        <mxCell id="MBWIw181q72L8Iw8k_BT-14" value="Remediation Ticket Process" style="text;html=1;align=center;verticalAlign=middle;whiteSpace=wrap;rounded=0;" vertex="1" parent="1">
          <mxGeometry x="685" y="55" width="170" height="30" as="geometry" />
        </mxCell>
        <mxCell id="MBWIw181q72L8Iw8k_BT-18" value="Book Of Records" style="text;html=1;align=center;verticalAlign=middle;whiteSpace=wrap;rounded=0;" vertex="1" parent="1">
          <mxGeometry x="-230" y="100" width="100" height="30" as="geometry" />
        </mxCell>
        <mxCell id="MBWIw181q72L8Iw8k_BT-19" value="Reported to TR by Cappitech&amp;nbsp;" style="text;html=1;align=center;verticalAlign=middle;whiteSpace=wrap;rounded=0;" vertex="1" parent="1">
          <mxGeometry x="-195" y="130" width="130" height="30" as="geometry" />
        </mxCell>
        <mxCell id="MBWIw181q72L8Iw8k_BT-20" value="Delegated Reporting&amp;nbsp;&lt;span style=&quot;background-color: initial;&quot;&gt;&amp;amp; TSR&lt;/span&gt;" style="text;html=1;align=center;verticalAlign=middle;whiteSpace=wrap;rounded=0;" vertex="1" parent="1">
          <mxGeometry x="-42.5" y="100" width="165" height="30" as="geometry" />
        </mxCell>
        <mxCell id="MBWIw181q72L8Iw8k_BT-21" value="Reported to TR by Other" style="text;html=1;align=center;verticalAlign=middle;whiteSpace=wrap;rounded=0;" vertex="1" parent="1">
          <mxGeometry x="-65" y="130" width="130" height="30" as="geometry" />
        </mxCell>
      </root>
    </mxGraphModel>
  </diagram>
</mxfile>
